<svg xmlns="http://www.w3.org/2000/svg" xmlns:xlink="http://www.w3.org/1999/xlink" width="520" zoomAndPan="magnify" viewBox="0 0 390 396.749985" height="529" preserveAspectRatio="xMidYMid meet" version="1.0"><defs><g/></defs><g fill="#c97a2c" fill-opacity="1"><g transform="translate(54.888359, 245.395392)"><g><path d="M 5.796875 -11.390625 L 17.984375 -15.984375 L 17.984375 -105.53125 L 5.796875 -110.125 L 5.796875 -121.53125 L 70.359375 -121.53125 C 80.753906 -121.53125 88.484375 -119.226562 93.546875 -114.625 C 98.609375 -110.03125 101.140625 -102.003906 101.140625 -90.546875 C 101.140625 -85.078125 100.101562 -80.578125 98.03125 -77.046875 C 95.96875 -73.515625 93.769531 -70.914062 91.4375 -69.25 C 89.101562 -67.59375 86.207031 -65.894531 82.75 -64.15625 L 82.75 -62.953125 C 90.207031 -61.628906 96.203125 -58.46875 100.734375 -53.46875 C 105.265625 -48.46875 107.53125 -42.238281 107.53125 -34.78125 C 107.53125 -22.25 104.234375 -13.316406 97.640625 -7.984375 C 91.046875 -2.660156 82.21875 0 71.15625 0 L 5.796875 0 Z M 57.359375 -68.5625 C 62.296875 -68.5625 65.828125 -69.757812 67.953125 -72.15625 C 70.085938 -74.550781 71.15625 -79.28125 71.15625 -86.34375 C 71.15625 -93.800781 70.519531 -99.195312 69.25 -102.53125 C 67.988281 -105.863281 65.757812 -107.460938 62.5625 -107.328125 L 47.765625 -105.328125 L 47.765625 -68.5625 Z M 65.953125 -14.1875 C 69.953125 -13.925781 72.816406 -15.5625 74.546875 -19.09375 C 76.285156 -22.625 77.15625 -28.648438 77.15625 -37.171875 C 77.15625 -41.835938 76.585938 -45.300781 75.453125 -47.5625 C 74.316406 -49.832031 72.78125 -51.265625 70.84375 -51.859375 C 68.914062 -52.460938 66.15625 -52.765625 62.5625 -52.765625 L 47.765625 -52.765625 L 47.765625 -16.390625 Z M 65.953125 -14.1875 "/></g></g></g><g fill="#c97a2c" fill-opacity="1"><g transform="translate(150.661347, 292.123321)"><g><path d="M 47.765625 1.796875 C 37.773438 1.796875 24.785156 1.128906 8.796875 -0.203125 L 10.1875 -36.78125 L 21.390625 -36.78125 L 24.578125 -14.390625 C 29.773438 -13.585938 35.140625 -12.882812 40.671875 -12.28125 C 46.203125 -11.6875 50.765625 -11.390625 54.359375 -11.390625 C 55.160156 -11.390625 56.226562 -12.253906 57.5625 -13.984375 C 58.894531 -15.722656 60.09375 -17.820312 61.15625 -20.28125 C 62.226562 -22.75 62.765625 -25.117188 62.765625 -27.390625 C 62.765625 -32.578125 60.863281 -36.90625 57.0625 -40.375 C 53.269531 -43.84375 47.441406 -47.773438 39.578125 -52.171875 C 33.316406 -55.765625 28.253906 -58.957031 24.390625 -61.75 C 20.523438 -64.550781 17.222656 -68.082031 14.484375 -72.34375 C 11.753906 -76.613281 10.390625 -81.546875 10.390625 -87.140625 C 10.390625 -90.867188 10.722656 -94.332031 11.390625 -97.53125 C 12.992188 -100.46875 15.992188 -103.867188 20.390625 -107.734375 C 24.785156 -111.597656 29.3125 -114.960938 33.96875 -117.828125 C 38.632812 -120.691406 42.101562 -122.125 44.375 -122.125 C 45.4375 -122.125 53.296875 -121.390625 67.953125 -119.921875 C 69.554688 -119.785156 71.222656 -119.648438 72.953125 -119.515625 C 74.679688 -119.390625 76.414062 -119.191406 78.15625 -118.921875 L 76.75 -84.34375 L 65.5625 -84.34375 L 62.5625 -104.734375 C 58.300781 -105.535156 53.269531 -106.300781 47.46875 -107.03125 C 41.675781 -107.757812 37.3125 -108.125 34.375 -108.125 C 32.644531 -108.125 31.179688 -106.957031 29.984375 -104.625 C 28.785156 -102.300781 28.1875 -98.671875 28.1875 -93.734375 C 28.1875 -88.410156 30.050781 -83.945312 33.78125 -80.34375 C 37.507812 -76.75 43.039062 -72.882812 50.375 -68.75 C 57.5625 -64.625 63.117188 -61.191406 67.046875 -58.453125 C 70.984375 -55.722656 74.414062 -52.226562 77.34375 -47.96875 C 80.28125 -43.707031 81.75 -38.578125 81.75 -32.578125 C 81.75 -29.242188 81.347656 -25.976562 80.546875 -22.78125 C 78.953125 -19.445312 76.019531 -15.847656 71.75 -11.984375 C 67.488281 -8.128906 63.054688 -4.867188 58.453125 -2.203125 C 53.859375 0.460938 50.296875 1.796875 47.765625 1.796875 Z M 47.765625 1.796875 "/></g></g></g><g fill="#c97a2c" fill-opacity="1"><g transform="translate(217.845551, 245.395392)"><g><path d="M 5.796875 -11.390625 L 17.984375 -15.984375 L 17.984375 -105.53125 L 5.796875 -110.125 L 5.796875 -121.53125 L 71.15625 -121.53125 C 81.8125 -121.53125 89.835938 -118.929688 95.234375 -113.734375 C 100.628906 -108.535156 103.328125 -99.875 103.328125 -87.75 C 103.328125 -78.945312 101.53125 -71.679688 97.9375 -65.953125 C 94.34375 -60.222656 89.476562 -56.023438 83.34375 -53.359375 L 83.34375 -52.171875 L 97.53125 -28.578125 L 105.140625 -15.984375 L 115.921875 -11.796875 L 115.921875 0 L 79.34375 0 L 57.5625 -49.171875 L 47.765625 -49.171875 L 47.765625 -17.390625 L 60.359375 -12.390625 L 60.359375 0 L 5.796875 0 Z M 58.359375 -65.15625 C 61.960938 -65.15625 64.796875 -65.554688 66.859375 -66.359375 C 68.921875 -67.160156 70.484375 -68.859375 71.546875 -71.453125 C 72.617188 -74.054688 73.15625 -78.019531 73.15625 -83.34375 C 73.15625 -98.800781 69.753906 -106.53125 62.953125 -106.53125 L 47.765625 -104.734375 L 47.765625 -65.15625 Z M 58.359375 -65.15625 "/></g></g></g></svg>